# xmcd
#
# Track frame offsets: 
#        150
#        19885
#        40845
#        59187
#        87097
#        106965
#        126320
#        146822
#        170090
#        188357
#        209482
#
# Disc length: 3055 seconds
#
# Revision: 7
# Processed by: cddbd v1.5.2PL0 Copyright (c) Steve Scherf et al.
# Submitted via: ExactAudioCopyFreeDBPlugin 1.0
#
DISCID=a20bed0b
DTITLE=Ratt - Ratt 'N' Roll
DYEAR=1999
DGENRE=Rock
TTITLE0=Over The Edge
TTITLE1=Live For Today
TTITLE2=Gave Up Givin' Up
TTITLE3=We Don't Belong
TTITLE4=Breakout
TTITLE5=Tug Of War
TTITLE6=Dead Reckoning
TTITLE7=Luv Sick
TTITLE8=It Ain't Easy
TTITLE9=All The Way
TTITLE10=So Good, So Fine
EXTD=YEAR: 1999
EXTT0=
EXTT1=
EXTT2=
EXTT3=
EXTT4=
EXTT5=
EXTT6=
EXTT7=
EXTT8=
EXTT9=
EXTT10=
PLAYORDER=
